<?xml version="1.0" encoding="UTF-8" standalone="no"?>
<!DOCTYPE svg PUBLIC "-//W3C//DTD SVG 1.1//EN"
 "http://www.w3.org/Graphics/SVG/1.1/DTD/svg11.dtd">
<!-- Generated by graphviz version 2.49.0 (20210828.1703)
 -->
<!-- Pages: 1 -->
<svg width="450pt" height="202pt"
 viewBox="0.00 0.00 450.00 202.00" xmlns="http://www.w3.org/2000/svg" xmlns:xlink="http://www.w3.org/1999/xlink">
<g id="graph0" class="graph" transform="scale(1 1) rotate(0) translate(4 198)">
<polygon fill="white" stroke="transparent" points="-4,4 -4,-198 446,-198 446,4 -4,4"/>
<!-- head -->
<g id="node1" class="node">
<title>head</title>
<polygon fill="#cdad00" stroke="#cdad00" points="439,-194 385,-194 385,-158 439,-158 439,-194"/>
<text text-anchor="middle" x="412" y="-173.2" font-family="Roboto Medium" font-size="11.00" fill="white">HEAD</text>
</g>
<!-- b1 -->
<g id="node2" class="node">
<title>b1</title>
<polygon fill="#cd0000" stroke="#cd0000" points="439,-140 385,-140 385,-104 439,-104 439,-140"/>
<text text-anchor="middle" x="412" y="-119.2" font-family="Roboto Medium" font-size="11.00" fill="white">main</text>
</g>
<!-- head&#45;&gt;b1 -->
<g id="edge9" class="edge">
<title>head&#45;&gt;b1</title>
<path fill="none" stroke="dimgray" d="M412,-157.79C412,-155.31 412,-152.83 412,-150.34"/>
<polygon fill="dimgray" stroke="dimgray" points="415.5,-150.14 412,-140.14 408.5,-150.14 415.5,-150.14"/>
</g>
<!-- c6 -->
<g id="node9" class="node">
<title>c6</title>
<polygon fill="whitesmoke" stroke="lightgray" points="442,-86 382,-86 382,-50 442,-50 442,-86"/>
<text text-anchor="middle" x="412" y="-65.2" font-family="Roboto Medium" font-size="11.00">86051d8</text>
</g>
<!-- b1&#45;&gt;c6 -->
<g id="edge8" class="edge">
<title>b1&#45;&gt;c6</title>
<path fill="none" stroke="dimgray" d="M412,-103.79C412,-101.31 412,-98.83 412,-96.34"/>
<polygon fill="dimgray" stroke="dimgray" points="415.5,-96.14 412,-86.14 408.5,-96.14 415.5,-96.14"/>
</g>
<!-- b2 -->
<g id="node3" class="node">
<title>b2</title>
<polygon fill="#cd0000" stroke="#cd0000" points="343,-90 289,-90 289,-54 343,-54 343,-90"/>
<text text-anchor="middle" x="316" y="-69.2" font-family="Roboto Medium" font-size="11.00" fill="white">test</text>
</g>
<!-- c5 -->
<g id="node8" class="node">
<title>c5</title>
<polygon fill="whitesmoke" stroke="lightgray" points="346,-36 286,-36 286,0 346,0 346,-36"/>
<text text-anchor="middle" x="316" y="-15.2" font-family="Roboto Medium" font-size="11.00">8697605</text>
</g>
<!-- b2&#45;&gt;c5 -->
<g id="edge7" class="edge">
<title>b2&#45;&gt;c5</title>
<path fill="none" stroke="dimgray" d="M316,-53.79C316,-51.31 316,-48.83 316,-46.34"/>
<polygon fill="dimgray" stroke="dimgray" points="319.5,-46.14 316,-36.14 312.5,-46.14 319.5,-46.14"/>
</g>
<!-- c1 -->
<g id="node4" class="node">
<title>c1</title>
<polygon fill="whitesmoke" stroke="lightgray" points="59,-86 0,-86 0,-50 59,-50 59,-86"/>
<text text-anchor="middle" x="29.5" y="-65.2" font-family="Roboto Medium" font-size="11.00">91cec6b</text>
</g>
<!-- c2 -->
<g id="node5" class="node">
<title>c2</title>
<polygon fill="whitesmoke" stroke="lightgray" points="155,-86 95,-86 95,-50 155,-50 155,-86"/>
<text text-anchor="middle" x="125" y="-65.2" font-family="Roboto Medium" font-size="11.00">53e37a2</text>
</g>
<!-- c2&#45;&gt;c1 -->
<g id="edge1" class="edge">
<title>c2&#45;&gt;c1</title>
<path fill="none" stroke="dimgray" d="M94.93,-68C86.85,-68 77.94,-68 69.4,-68"/>
<polygon fill="dimgray" stroke="dimgray" points="69.23,-64.5 59.23,-68 69.23,-71.5 69.23,-64.5"/>
</g>
<!-- c3 -->
<g id="node6" class="node">
<title>c3</title>
<polygon fill="whitesmoke" stroke="lightgray" points="250,-124 191,-124 191,-88 250,-88 250,-124"/>
<text text-anchor="middle" x="220.5" y="-103.2" font-family="Roboto Medium" font-size="11.00">e341d0c</text>
</g>
<!-- c3&#45;&gt;c2 -->
<g id="edge2" class="edge">
<title>c3&#45;&gt;c2</title>
<path fill="none" stroke="dimgray" d="M190.94,-94.39C182.58,-90.99 173.3,-87.22 164.43,-83.62"/>
<polygon fill="dimgray" stroke="dimgray" points="165.61,-80.32 155.03,-79.8 162.98,-86.81 165.61,-80.32"/>
</g>
<!-- c4 -->
<g id="node7" class="node">
<title>c4</title>
<polygon fill="whitesmoke" stroke="lightgray" points="250,-59 191,-59 191,-23 250,-23 250,-59"/>
<text text-anchor="middle" x="220.5" y="-38.2" font-family="Roboto Medium" font-size="11.00">e4b00ee</text>
</g>
<!-- c4&#45;&gt;c2 -->
<g id="edge3" class="edge">
<title>c4&#45;&gt;c2</title>
<path fill="none" stroke="dimgray" d="M190.94,-49.25C182.67,-51.64 173.49,-54.29 164.71,-56.82"/>
<polygon fill="dimgray" stroke="dimgray" points="163.67,-53.48 155.03,-59.62 165.61,-60.2 163.67,-53.48"/>
</g>
<!-- c5&#45;&gt;c4 -->
<g id="edge4" class="edge">
<title>c5&#45;&gt;c4</title>
<path fill="none" stroke="dimgray" d="M285.93,-25.15C277.76,-27.16 268.75,-29.38 260.12,-31.5"/>
<polygon fill="dimgray" stroke="dimgray" points="259.11,-28.14 250.23,-33.93 260.78,-34.94 259.11,-28.14"/>
</g>
<!-- c6&#45;&gt;c3 -->
<g id="edge5" class="edge">
<title>c6&#45;&gt;c3</title>
<path fill="none" stroke="dimgray" d="M381.82,-84.89C370.93,-90.38 358.23,-95.87 346,-99 317.92,-106.19 285.16,-107.77 260.3,-107.65"/>
<polygon fill="dimgray" stroke="dimgray" points="260.21,-104.15 250.16,-107.5 260.11,-111.15 260.21,-104.15"/>
</g>
<!-- c6&#45;&gt;c5 -->
<g id="edge6" class="edge">
<title>c6&#45;&gt;c5</title>
<path fill="none" stroke="dimgray" d="M381.77,-52.45C373.37,-47.99 364.08,-43.05 355.23,-38.33"/>
<polygon fill="dimgray" stroke="dimgray" points="356.68,-35.14 346.21,-33.54 353.39,-41.32 356.68,-35.14"/>
</g>
</g>
</svg>
